<mxfile host="app.diagrams.net" agent="Mozilla/5.0 (Windows NT 10.0; Win64; x64) AppleWebKit/537.36 (KHTML, like Gecko) Chrome/141.0.0.0 Safari/537.36 Edg/141.0.0.0" version="28.2.5">
  <diagram name="Página-1" id="bUJeoU7_6m42buMJ5uw1">
    <mxGraphModel dx="945" dy="524" grid="1" gridSize="10" guides="1" tooltips="1" connect="1" arrows="1" fold="1" page="1" pageScale="1" pageWidth="827" pageHeight="1169" math="0" shadow="0">
      <root>
        <mxCell id="0" />
        <mxCell id="1" parent="0" />
        <mxCell id="y6Vcdkbb8RHod7NcVNtX-4" style="edgeStyle=orthogonalEdgeStyle;rounded=0;orthogonalLoop=1;jettySize=auto;html=1;entryX=0.5;entryY=0;entryDx=0;entryDy=0;" edge="1" parent="1" source="y6Vcdkbb8RHod7NcVNtX-1" target="y6Vcdkbb8RHod7NcVNtX-3">
          <mxGeometry relative="1" as="geometry">
            <Array as="points">
              <mxPoint x="150" y="30" />
            </Array>
          </mxGeometry>
        </mxCell>
        <mxCell id="y6Vcdkbb8RHod7NcVNtX-1" value="Inicio" style="ellipse;whiteSpace=wrap;html=1;" vertex="1" parent="1">
          <mxGeometry x="10" y="10" width="100" height="40" as="geometry" />
        </mxCell>
        <mxCell id="y6Vcdkbb8RHod7NcVNtX-45" style="edgeStyle=orthogonalEdgeStyle;rounded=0;orthogonalLoop=1;jettySize=auto;html=1;" edge="1" parent="1" source="y6Vcdkbb8RHod7NcVNtX-2" target="y6Vcdkbb8RHod7NcVNtX-43">
          <mxGeometry relative="1" as="geometry" />
        </mxCell>
        <mxCell id="y6Vcdkbb8RHod7NcVNtX-2" value="Escreve &quot;Diz um número :&quot; LER n" style="shape=parallelogram;perimeter=parallelogramPerimeter;whiteSpace=wrap;html=1;fixedSize=1;" vertex="1" parent="1">
          <mxGeometry x="20" y="130" width="240" height="40" as="geometry" />
        </mxCell>
        <mxCell id="y6Vcdkbb8RHod7NcVNtX-3" value="LER n = 0;" style="shape=parallelogram;perimeter=parallelogramPerimeter;whiteSpace=wrap;html=1;fixedSize=1;" vertex="1" parent="1">
          <mxGeometry x="30" y="70" width="240" height="40" as="geometry" />
        </mxCell>
        <mxCell id="y6Vcdkbb8RHod7NcVNtX-5" style="edgeStyle=orthogonalEdgeStyle;rounded=0;orthogonalLoop=1;jettySize=auto;html=1;entryX=0.542;entryY=0;entryDx=0;entryDy=0;entryPerimeter=0;" edge="1" parent="1" source="y6Vcdkbb8RHod7NcVNtX-3" target="y6Vcdkbb8RHod7NcVNtX-2">
          <mxGeometry relative="1" as="geometry" />
        </mxCell>
        <mxCell id="y6Vcdkbb8RHod7NcVNtX-14" style="edgeStyle=orthogonalEdgeStyle;rounded=0;orthogonalLoop=1;jettySize=auto;html=1;entryX=0.5;entryY=0;entryDx=0;entryDy=0;" edge="1" parent="1" source="y6Vcdkbb8RHod7NcVNtX-6" target="y6Vcdkbb8RHod7NcVNtX-13">
          <mxGeometry relative="1" as="geometry" />
        </mxCell>
        <mxCell id="y6Vcdkbb8RHod7NcVNtX-15" value="Não" style="edgeLabel;html=1;align=center;verticalAlign=middle;resizable=0;points=[];" vertex="1" connectable="0" parent="y6Vcdkbb8RHod7NcVNtX-14">
          <mxGeometry x="-0.0664" relative="1" as="geometry">
            <mxPoint as="offset" />
          </mxGeometry>
        </mxCell>
        <mxCell id="y6Vcdkbb8RHod7NcVNtX-21" style="edgeStyle=orthogonalEdgeStyle;rounded=0;orthogonalLoop=1;jettySize=auto;html=1;entryX=0.5;entryY=0;entryDx=0;entryDy=0;exitX=1;exitY=0.5;exitDx=0;exitDy=0;" edge="1" parent="1" source="y6Vcdkbb8RHod7NcVNtX-6" target="y6Vcdkbb8RHod7NcVNtX-12">
          <mxGeometry relative="1" as="geometry">
            <Array as="points">
              <mxPoint x="110.5" y="380" />
              <mxPoint x="290.5" y="380" />
            </Array>
          </mxGeometry>
        </mxCell>
        <mxCell id="y6Vcdkbb8RHod7NcVNtX-22" value="Sim" style="edgeLabel;html=1;align=center;verticalAlign=middle;resizable=0;points=[];" vertex="1" connectable="0" parent="y6Vcdkbb8RHod7NcVNtX-21">
          <mxGeometry x="-0.1233" y="1" relative="1" as="geometry">
            <mxPoint as="offset" />
          </mxGeometry>
        </mxCell>
        <mxCell id="y6Vcdkbb8RHod7NcVNtX-6" value="(n % 5) == 0" style="rhombus;whiteSpace=wrap;html=1;" vertex="1" parent="1">
          <mxGeometry x="30.5" y="290" width="80" height="80" as="geometry" />
        </mxCell>
        <mxCell id="y6Vcdkbb8RHod7NcVNtX-25" style="edgeStyle=orthogonalEdgeStyle;rounded=0;orthogonalLoop=1;jettySize=auto;html=1;entryX=0;entryY=0.5;entryDx=0;entryDy=0;" edge="1" parent="1" source="y6Vcdkbb8RHod7NcVNtX-8" target="y6Vcdkbb8RHod7NcVNtX-24">
          <mxGeometry relative="1" as="geometry" />
        </mxCell>
        <mxCell id="y6Vcdkbb8RHod7NcVNtX-26" value="Sim" style="edgeLabel;html=1;align=center;verticalAlign=middle;resizable=0;points=[];" vertex="1" connectable="0" parent="y6Vcdkbb8RHod7NcVNtX-25">
          <mxGeometry x="-0.0437" y="1" relative="1" as="geometry">
            <mxPoint as="offset" />
          </mxGeometry>
        </mxCell>
        <mxCell id="y6Vcdkbb8RHod7NcVNtX-29" style="edgeStyle=orthogonalEdgeStyle;rounded=0;orthogonalLoop=1;jettySize=auto;html=1;exitX=1;exitY=1;exitDx=0;exitDy=0;entryX=0;entryY=0.5;entryDx=0;entryDy=0;" edge="1" parent="1" source="y6Vcdkbb8RHod7NcVNtX-8" target="y6Vcdkbb8RHod7NcVNtX-27">
          <mxGeometry relative="1" as="geometry" />
        </mxCell>
        <mxCell id="y6Vcdkbb8RHod7NcVNtX-30" value="Não" style="edgeLabel;html=1;align=center;verticalAlign=middle;resizable=0;points=[];" vertex="1" connectable="0" parent="y6Vcdkbb8RHod7NcVNtX-29">
          <mxGeometry x="-0.4684" relative="1" as="geometry">
            <mxPoint as="offset" />
          </mxGeometry>
        </mxCell>
        <mxCell id="y6Vcdkbb8RHod7NcVNtX-8" value="(n % 3) == 0" style="rhombus;whiteSpace=wrap;html=1;" vertex="1" parent="1">
          <mxGeometry x="200.5" y="290" width="80" height="80" as="geometry" />
        </mxCell>
        <mxCell id="y6Vcdkbb8RHod7NcVNtX-54" style="edgeStyle=orthogonalEdgeStyle;rounded=0;orthogonalLoop=1;jettySize=auto;html=1;" edge="1" parent="1" source="y6Vcdkbb8RHod7NcVNtX-12">
          <mxGeometry relative="1" as="geometry">
            <mxPoint x="290.5" y="470" as="targetPoint" />
          </mxGeometry>
        </mxCell>
        <mxCell id="y6Vcdkbb8RHod7NcVNtX-12" value="Escrever &quot;É múltiplo de 5&quot;" style="shape=parallelogram;perimeter=parallelogramPerimeter;whiteSpace=wrap;html=1;fixedSize=1;" vertex="1" parent="1">
          <mxGeometry x="190.5" y="410" width="200" height="30" as="geometry" />
        </mxCell>
        <mxCell id="y6Vcdkbb8RHod7NcVNtX-53" style="edgeStyle=orthogonalEdgeStyle;rounded=0;orthogonalLoop=1;jettySize=auto;html=1;entryX=1;entryY=0.5;entryDx=0;entryDy=0;" edge="1" parent="1" source="y6Vcdkbb8RHod7NcVNtX-13" target="y6Vcdkbb8RHod7NcVNtX-2">
          <mxGeometry relative="1" as="geometry">
            <Array as="points">
              <mxPoint x="101" y="470" />
              <mxPoint x="630" y="470" />
              <mxPoint x="630" y="150" />
            </Array>
          </mxGeometry>
        </mxCell>
        <mxCell id="y6Vcdkbb8RHod7NcVNtX-13" value="Escrever &quot;Não é múltiplo de 5&quot;" style="shape=parallelogram;perimeter=parallelogramPerimeter;whiteSpace=wrap;html=1;fixedSize=1;" vertex="1" parent="1">
          <mxGeometry x="0.5" y="410" width="200" height="30" as="geometry" />
        </mxCell>
        <mxCell id="y6Vcdkbb8RHod7NcVNtX-56" style="edgeStyle=orthogonalEdgeStyle;rounded=0;orthogonalLoop=1;jettySize=auto;html=1;" edge="1" parent="1" source="y6Vcdkbb8RHod7NcVNtX-24">
          <mxGeometry relative="1" as="geometry">
            <mxPoint x="630" y="300" as="targetPoint" />
          </mxGeometry>
        </mxCell>
        <mxCell id="y6Vcdkbb8RHod7NcVNtX-24" value="Escrever &quot;É múltiplo de 3&quot;" style="shape=parallelogram;perimeter=parallelogramPerimeter;whiteSpace=wrap;html=1;fixedSize=1;" vertex="1" parent="1">
          <mxGeometry x="319.5" y="290" width="200" height="20" as="geometry" />
        </mxCell>
        <mxCell id="y6Vcdkbb8RHod7NcVNtX-55" style="edgeStyle=orthogonalEdgeStyle;rounded=0;orthogonalLoop=1;jettySize=auto;html=1;" edge="1" parent="1" source="y6Vcdkbb8RHod7NcVNtX-27">
          <mxGeometry relative="1" as="geometry">
            <mxPoint x="630" y="340" as="targetPoint" />
          </mxGeometry>
        </mxCell>
        <mxCell id="y6Vcdkbb8RHod7NcVNtX-27" value="Escrever &quot;Não é múltiplo de 3&quot;" style="shape=parallelogram;perimeter=parallelogramPerimeter;whiteSpace=wrap;html=1;fixedSize=1;" vertex="1" parent="1">
          <mxGeometry x="319.5" y="330" width="190" height="20" as="geometry" />
        </mxCell>
        <mxCell id="y6Vcdkbb8RHod7NcVNtX-36" value="Fim" style="ellipse;whiteSpace=wrap;html=1;" vertex="1" parent="1">
          <mxGeometry x="319.5" y="220" width="100" height="40" as="geometry" />
        </mxCell>
        <mxCell id="y6Vcdkbb8RHod7NcVNtX-46" style="edgeStyle=orthogonalEdgeStyle;rounded=0;orthogonalLoop=1;jettySize=auto;html=1;" edge="1" parent="1" source="y6Vcdkbb8RHod7NcVNtX-43">
          <mxGeometry relative="1" as="geometry">
            <mxPoint x="140" y="310" as="targetPoint" />
          </mxGeometry>
        </mxCell>
        <mxCell id="y6Vcdkbb8RHod7NcVNtX-47" value="Não" style="edgeLabel;html=1;align=center;verticalAlign=middle;resizable=0;points=[];" vertex="1" connectable="0" parent="y6Vcdkbb8RHod7NcVNtX-46">
          <mxGeometry x="0.2123" relative="1" as="geometry">
            <mxPoint as="offset" />
          </mxGeometry>
        </mxCell>
        <mxCell id="y6Vcdkbb8RHod7NcVNtX-51" style="edgeStyle=orthogonalEdgeStyle;rounded=0;orthogonalLoop=1;jettySize=auto;html=1;" edge="1" parent="1" source="y6Vcdkbb8RHod7NcVNtX-43">
          <mxGeometry relative="1" as="geometry">
            <mxPoint x="320" y="240" as="targetPoint" />
          </mxGeometry>
        </mxCell>
        <mxCell id="y6Vcdkbb8RHod7NcVNtX-52" value="Sim" style="edgeLabel;html=1;align=center;verticalAlign=middle;resizable=0;points=[];" vertex="1" connectable="0" parent="y6Vcdkbb8RHod7NcVNtX-51">
          <mxGeometry x="-0.0824" y="1" relative="1" as="geometry">
            <mxPoint as="offset" />
          </mxGeometry>
        </mxCell>
        <mxCell id="y6Vcdkbb8RHod7NcVNtX-43" value="n == 0" style="rhombus;whiteSpace=wrap;html=1;" vertex="1" parent="1">
          <mxGeometry x="100" y="200" width="80" height="80" as="geometry" />
        </mxCell>
        <mxCell id="y6Vcdkbb8RHod7NcVNtX-48" value="" style="ellipse;whiteSpace=wrap;html=1;" vertex="1" parent="1">
          <mxGeometry x="130.5" y="310" width="19" height="20" as="geometry" />
        </mxCell>
        <mxCell id="y6Vcdkbb8RHod7NcVNtX-49" style="edgeStyle=orthogonalEdgeStyle;rounded=0;orthogonalLoop=1;jettySize=auto;html=1;entryX=0.888;entryY=0.379;entryDx=0;entryDy=0;entryPerimeter=0;" edge="1" parent="1" source="y6Vcdkbb8RHod7NcVNtX-48" target="y6Vcdkbb8RHod7NcVNtX-6">
          <mxGeometry relative="1" as="geometry" />
        </mxCell>
        <mxCell id="y6Vcdkbb8RHod7NcVNtX-50" style="edgeStyle=orthogonalEdgeStyle;rounded=0;orthogonalLoop=1;jettySize=auto;html=1;entryX=0.119;entryY=0.375;entryDx=0;entryDy=0;entryPerimeter=0;" edge="1" parent="1" source="y6Vcdkbb8RHod7NcVNtX-48" target="y6Vcdkbb8RHod7NcVNtX-8">
          <mxGeometry relative="1" as="geometry" />
        </mxCell>
      </root>
    </mxGraphModel>
  </diagram>
</mxfile>
